<svg width="27" height="20" viewBox="0 0 27 20" fill="none" xmlns="http://www.w3.org/2000/svg">
<g clip-path="url(#clip0_703_8004)">
<g filter="url(#filter0_b_703_8004)">
<mask id="path-1-inside-1_703_8004" fill="white">
<path fill-rule="evenodd" clip-rule="evenodd" d="M0.10027 12.5093V12.8694C8.78096 12.8694 17.4031 12.8694 26.0586 12.861V12.501V1.23887C26.0586 0.451777 25.7071 0.100098 24.9034 0.100098H1.25546C0.443479 0.100098 0.10027 0.451777 0.10027 1.24724V12.5093ZM12.2932 8.72306C11.9431 8.92553 11.5907 9.12942 11.2337 9.33586V4.41235C12.1396 4.94011 13.0321 5.45429 13.9347 5.97434C14.4498 6.27114 14.9683 6.56986 15.4945 6.87411C14.4096 7.49869 13.3628 8.10426 12.2932 8.72306ZM22.008 17.3643C21.9252 17.1612 21.8405 16.9535 21.7559 16.7379H21.7566C22.8864 16.7379 23.9493 16.7379 24.9954 16.7295C25.5646 16.7211 25.9999 16.4029 26.0251 15.8922C26.054 15.406 26.0469 14.9158 26.0398 14.4217C26.0366 14.2009 26.0334 13.9793 26.0334 13.757H0.0917969V15.5321C0.0917969 16.3778 0.443378 16.7295 1.28047 16.7295H4.3861C4.1266 17.3826 3.88384 17.9855 3.64109 18.5884C3.54064 18.8563 3.49878 19.1243 3.83362 19.2499C4.16009 19.3755 4.31914 19.1577 4.42796 18.8898C4.50152 18.7083 4.57651 18.5275 4.65147 18.3468C4.83242 17.9107 5.01316 17.475 5.17297 17.0309C5.26505 16.7881 5.39062 16.7295 5.63338 16.7295C10.5974 16.7379 15.5613 16.7379 20.5253 16.7295C20.7848 16.7295 20.8937 16.8132 20.9774 17.0477C21.1673 17.5518 21.3699 18.0431 21.5742 18.5384C21.604 18.6108 21.6339 18.6832 21.6638 18.7558C21.6847 18.8019 21.7035 18.8458 21.7224 18.8898C21.7412 18.9338 21.76 18.9777 21.781 19.0238C21.8898 19.2666 22.1158 19.3838 22.3167 19.2415C22.4507 19.1494 22.5678 18.8563 22.5176 18.7056C22.3725 18.2585 22.1952 17.8235 22.008 17.3643ZM16.2394 15.4065H13.0584C12.7072 15.4065 12.355 15.4056 12.0024 15.4046C11.2965 15.4028 10.5893 15.4009 9.88583 15.4065C9.60122 15.4065 9.32497 15.373 9.3166 15.013C9.30823 14.6445 9.58447 14.5692 9.8942 14.5692H16.2478C16.5491 14.5692 16.8337 14.6362 16.8337 15.0046C16.8337 15.3898 16.5324 15.4065 16.2394 15.4065Z"/>
</mask>
<path fill-rule="evenodd" clip-rule="evenodd" d="M0.10027 12.5093V12.8694C8.78096 12.8694 17.4031 12.8694 26.0586 12.861V12.501V1.23887C26.0586 0.451777 25.7071 0.100098 24.9034 0.100098H1.25546C0.443479 0.100098 0.10027 0.451777 0.10027 1.24724V12.5093ZM12.2932 8.72306C11.9431 8.92553 11.5907 9.12942 11.2337 9.33586V4.41235C12.1396 4.94011 13.0321 5.45429 13.9347 5.97434C14.4498 6.27114 14.9683 6.56986 15.4945 6.87411C14.4096 7.49869 13.3628 8.10426 12.2932 8.72306ZM22.008 17.3643C21.9252 17.1612 21.8405 16.9535 21.7559 16.7379H21.7566C22.8864 16.7379 23.9493 16.7379 24.9954 16.7295C25.5646 16.7211 25.9999 16.4029 26.0251 15.8922C26.054 15.406 26.0469 14.9158 26.0398 14.4217C26.0366 14.2009 26.0334 13.9793 26.0334 13.757H0.0917969V15.5321C0.0917969 16.3778 0.443378 16.7295 1.28047 16.7295H4.3861C4.1266 17.3826 3.88384 17.9855 3.64109 18.5884C3.54064 18.8563 3.49878 19.1243 3.83362 19.2499C4.16009 19.3755 4.31914 19.1577 4.42796 18.8898C4.50152 18.7083 4.57651 18.5275 4.65147 18.3468C4.83242 17.9107 5.01316 17.475 5.17297 17.0309C5.26505 16.7881 5.39062 16.7295 5.63338 16.7295C10.5974 16.7379 15.5613 16.7379 20.5253 16.7295C20.7848 16.7295 20.8937 16.8132 20.9774 17.0477C21.1673 17.5518 21.3699 18.0431 21.5742 18.5384C21.604 18.6108 21.6339 18.6832 21.6638 18.7558C21.6847 18.8019 21.7035 18.8458 21.7224 18.8898C21.7412 18.9338 21.76 18.9777 21.781 19.0238C21.8898 19.2666 22.1158 19.3838 22.3167 19.2415C22.4507 19.1494 22.5678 18.8563 22.5176 18.7056C22.3725 18.2585 22.1952 17.8235 22.008 17.3643ZM16.2394 15.4065H13.0584C12.7072 15.4065 12.355 15.4056 12.0024 15.4046C11.2965 15.4028 10.5893 15.4009 9.88583 15.4065C9.60122 15.4065 9.32497 15.373 9.3166 15.013C9.30823 14.6445 9.58447 14.5692 9.8942 14.5692H16.2478C16.5491 14.5692 16.8337 14.6362 16.8337 15.0046C16.8337 15.3898 16.5324 15.4065 16.2394 15.4065Z" fill="#E60000"/>
<path d="M0.10027 12.8694H-0.89973V13.8694H0.10027V12.8694ZM26.0586 12.861L26.0596 13.861L27.0586 13.8601V12.861H26.0586ZM11.2337 9.33586H10.2337V11.0692L11.7342 10.2016L11.2337 9.33586ZM12.2932 8.72306L12.7939 9.58866H12.7939L12.2932 8.72306ZM11.2337 4.41235L11.737 3.54827L10.2337 2.67255V4.41235H11.2337ZM13.9347 5.97434L13.4355 6.84081L13.9347 5.97434ZM15.4945 6.87411L15.9934 7.74073L17.4955 6.87595L15.995 6.0084L15.4945 6.87411ZM21.7559 16.7379V15.7379H20.2888L20.8251 17.1034L21.7559 16.7379ZM22.008 17.3643L22.934 16.9868L22.934 16.9868L22.008 17.3643ZM24.9954 16.7295L25.0034 17.7295L25.0101 17.7294L24.9954 16.7295ZM26.0251 15.8922L25.0268 15.8328L25.0263 15.8431L26.0251 15.8922ZM26.0398 14.4217L25.0399 14.4361V14.4361L26.0398 14.4217ZM26.0334 13.757H27.0334V12.757H26.0334V13.757ZM0.0917969 13.757V12.757H-0.908203V13.757H0.0917969ZM4.3861 16.7295L5.31543 17.0987L5.85947 15.7295H4.3861V16.7295ZM3.64109 18.5884L2.71347 18.2148L2.70896 18.226L2.70473 18.2373L3.64109 18.5884ZM3.83362 19.2499L4.1927 18.3165L4.18483 18.3136L3.83362 19.2499ZM4.42796 18.8898L5.35446 19.2661L5.35473 19.2654L4.42796 18.8898ZM4.65147 18.3468L5.57514 18.73L5.57514 18.73L4.65147 18.3468ZM5.17297 17.0309L4.23794 16.6764L4.23493 16.6843L4.23206 16.6923L5.17297 17.0309ZM5.63338 16.7295L5.63506 15.7295H5.63338V16.7295ZM20.5253 16.7295V15.7295L20.5236 15.7295L20.5253 16.7295ZM20.9774 17.0477L20.0356 17.3839L20.0385 17.3921L20.0416 17.4002L20.9774 17.0477ZM21.5742 18.5384L20.6497 18.9197V18.9197L21.5742 18.5384ZM21.6638 18.7558L20.7391 19.1365L20.7459 19.1531L20.7534 19.1695L21.6638 18.7558ZM21.7224 18.8898L22.6416 18.496L22.6416 18.496L21.7224 18.8898ZM21.781 19.0238L22.6935 18.6148L22.6914 18.6101L21.781 19.0238ZM22.3167 19.2415L21.75 18.4174L21.7386 18.4255L22.3167 19.2415ZM22.5176 18.7056L21.5664 19.0143L21.5689 19.0217L22.5176 18.7056ZM12.0024 15.4046L11.9998 16.4046H11.9998L12.0024 15.4046ZM9.88583 15.4065V16.4065L9.89377 16.4065L9.88583 15.4065ZM9.3166 15.013L8.31686 15.0357L8.31687 15.0362L9.3166 15.013ZM1.10027 12.8694V12.5093H-0.89973V12.8694H1.10027ZM26.0577 11.861C17.4027 11.8694 8.78104 11.8694 0.10027 11.8694V13.8694C8.78088 13.8694 17.4035 13.8694 26.0596 13.861L26.0577 11.861ZM25.0586 12.501V12.861H27.0586V12.501H25.0586ZM25.0586 1.23887V12.501H27.0586V1.23887H25.0586ZM24.9034 1.1001C25.036 1.1001 25.1032 1.11515 25.1268 1.12247C25.144 1.12781 25.1161 1.1218 25.0792 1.08527C25.0419 1.04843 25.034 1.01861 25.0379 1.03093C25.0439 1.05004 25.0586 1.11198 25.0586 1.23887H27.0586C27.0586 0.719601 26.9451 0.117862 26.4856 -0.336625C26.0287 -0.788665 25.4261 -0.899902 24.9034 -0.899902V1.1001ZM1.25546 1.1001H24.9034V-0.899902H1.25546V1.1001ZM1.10027 1.24724C1.10027 1.11542 1.11508 1.05 1.12181 1.0283C1.12639 1.01351 1.11901 1.04394 1.08058 1.08238C1.04217 1.1208 1.01229 1.12766 1.02867 1.12258C1.0519 1.11538 1.11981 1.1001 1.25546 1.1001V-0.899902C0.731519 -0.899902 0.124334 -0.789933 -0.333833 -0.331638C-0.792119 0.126776 -0.89973 0.732087 -0.89973 1.24724H1.10027ZM1.10027 12.5093V1.24724H-0.89973V12.5093H1.10027ZM11.7342 10.2016C12.0914 9.99507 12.4439 9.79112 12.7939 9.58866L11.7924 7.85746C11.4424 8.05994 11.09 8.26378 10.7331 8.47015L11.7342 10.2016ZM10.2337 4.41235V9.33586H12.2337V4.41235H10.2337ZM14.4339 5.10787C13.531 4.58763 12.6406 4.07463 11.737 3.54827L10.7303 5.27644C11.6387 5.80559 12.5332 6.32094 13.4355 6.84081L14.4339 5.10787ZM15.995 6.0084C15.4681 5.70371 14.9489 5.40461 14.4339 5.10787L13.4355 6.84081C13.9507 7.13767 14.4685 7.43601 14.9939 7.73981L15.995 6.0084ZM12.7939 9.58866C13.8637 8.96979 14.9096 8.36472 15.9934 7.74073L14.9955 6.00748C13.9097 6.63266 12.862 7.23874 11.7924 7.85746L12.7939 9.58866ZM20.8251 17.1034C20.9125 17.3259 20.9995 17.5395 21.082 17.7417L22.934 16.9868C22.8509 16.783 22.7686 16.581 22.6866 16.3723L20.8251 17.1034ZM21.7566 15.7379H21.7559V17.7379H21.7566V15.7379ZM24.9874 15.7295C23.946 15.7379 22.8872 15.7379 21.7566 15.7379V17.7379C22.8857 17.7379 23.9526 17.7379 25.0034 17.7295L24.9874 15.7295ZM25.0263 15.8431C25.0268 15.8316 25.0311 15.8051 25.0475 15.7739C25.0635 15.7433 25.0828 15.7237 25.095 15.7141C25.1061 15.7053 25.1061 15.7088 25.0868 15.715C25.0675 15.7212 25.0325 15.7288 24.9807 15.7296L25.0101 17.7294C25.9139 17.7161 26.9643 17.152 27.0238 15.9413L25.0263 15.8431ZM25.0399 14.4361C25.0471 14.9367 25.0532 15.3897 25.0268 15.8328L27.0233 15.9516C27.0548 15.4223 27.0467 14.895 27.0397 14.4073L25.0399 14.4361ZM25.0334 13.757C25.0334 13.9877 25.0367 14.2165 25.0399 14.4361L27.0397 14.4073C27.0365 14.1853 27.0334 13.9709 27.0334 13.757H25.0334ZM0.0917969 14.757H26.0334V12.757H0.0917969V14.757ZM1.0918 15.5321V13.757H-0.908203V15.5321H1.0918ZM1.28047 15.7295C1.13592 15.7295 1.06214 15.7137 1.03465 15.7052C1.01459 15.6991 1.04352 15.7048 1.08134 15.7428C1.11897 15.7807 1.12369 15.8086 1.11682 15.7859C1.10776 15.756 1.0918 15.6795 1.0918 15.5321H-0.908203C-0.908203 16.0631 -0.802616 16.6846 -0.336895 17.153C0.130207 17.6228 0.751376 17.7295 1.28047 17.7295V15.7295ZM4.3861 15.7295H1.28047V17.7295H4.3861V15.7295ZM4.56871 18.9619C4.81137 18.3592 5.05496 17.7543 5.31543 17.0987L3.45677 16.3602C3.19825 17.0109 2.95632 17.6117 2.71347 18.2148L4.56871 18.9619ZM4.18483 18.3136C4.21576 18.3252 4.30607 18.3658 4.3968 18.4682C4.4933 18.5772 4.54356 18.7034 4.56123 18.8125C4.57684 18.9087 4.56439 18.9726 4.56268 18.9813C4.56071 18.9912 4.56192 18.9808 4.57745 18.9394L2.70473 18.2373C2.64847 18.3874 2.52291 18.7372 2.58701 19.1325C2.62352 19.3577 2.71981 19.5912 2.8995 19.7942C3.07341 19.9905 3.28406 20.1117 3.48241 20.1862L4.18483 18.3136ZM3.50145 18.5135C3.48689 18.5494 3.48179 18.5552 3.48869 18.5442C3.49508 18.5341 3.52939 18.481 3.60387 18.4239C3.68711 18.36 3.80271 18.3054 3.93868 18.2904C4.06779 18.276 4.15893 18.3036 4.19269 18.3165L3.47455 20.1832C3.91419 20.3523 4.41169 20.3248 4.82094 20.0109C5.13825 19.7676 5.28726 19.4316 5.35446 19.2661L3.50145 18.5135ZM3.7278 17.9637C3.6531 18.1437 3.57653 18.3283 3.50118 18.5142L5.35473 19.2654C5.4265 19.0883 5.49992 18.9113 5.57514 18.73L3.7278 17.9637ZM4.23206 16.6923C4.08168 17.1101 3.91027 17.5238 3.72779 17.9637L5.57514 18.73C5.75456 18.2975 5.94464 17.8398 6.11389 17.3696L4.23206 16.6923ZM5.63338 15.7295C5.45671 15.7295 5.13634 15.7447 4.82315 15.9371C4.48848 16.1428 4.32531 16.446 4.23794 16.6764L6.108 17.3855C6.11272 17.3731 6.05837 17.5255 5.87019 17.6412C5.7035 17.7436 5.56729 17.7295 5.63338 17.7295V15.7295ZM20.5236 15.7295C15.5608 15.7379 10.5979 15.7379 5.63506 15.7295L5.63169 17.7295C10.5968 17.7379 15.5619 17.7379 20.527 17.7295L20.5236 15.7295ZM21.9191 16.7114C21.8502 16.5183 21.7131 16.2123 21.3998 15.9878C21.084 15.7616 20.746 15.7295 20.5253 15.7295V17.7295C20.5642 17.7295 20.4103 17.7393 20.2348 17.6135C20.0617 17.4895 20.0208 17.3426 20.0356 17.3839L21.9191 16.7114ZM22.4986 18.1572C22.2934 17.6596 22.0967 17.1824 21.9132 16.6952L20.0416 17.4002C20.2378 17.9211 20.4464 18.4267 20.6497 18.9197L22.4986 18.1572ZM22.5885 18.3752C22.5585 18.3022 22.5285 18.2295 22.4986 18.1572L20.6497 18.9197C20.6796 18.9921 20.7093 19.0643 20.7391 19.1365L22.5885 18.3752ZM22.6416 18.496C22.6233 18.4533 22.6003 18.3996 22.5742 18.3421L20.7534 19.1695C20.7691 19.2042 20.7838 19.2384 20.8032 19.2836L22.6416 18.496ZM22.6914 18.6101C22.6756 18.5754 22.6609 18.5412 22.6416 18.496L20.8032 19.2836C20.8215 19.3264 20.8445 19.38 20.8706 19.4375L22.6914 18.6101ZM21.7386 18.4255C21.8164 18.3704 21.9266 18.3207 22.0618 18.3069C22.1962 18.2931 22.3189 18.3186 22.4168 18.3616C22.6019 18.443 22.6733 18.5696 22.6935 18.6148L20.8684 19.4327C20.9975 19.7208 21.2363 20.0274 21.6118 20.1925C22.0299 20.3763 22.5088 20.331 22.8948 20.0574L21.7386 18.4255ZM21.5689 19.0217C21.5184 18.8701 21.5293 18.7551 21.5334 18.7207C21.5388 18.6758 21.5481 18.6489 21.5526 18.6373C21.5574 18.6249 21.566 18.6055 21.5842 18.5785C21.5976 18.5589 21.6472 18.4882 21.7501 18.4175L22.8834 20.0654C23.1893 19.8551 23.3473 19.543 23.4198 19.3538C23.4867 19.1795 23.6022 18.7972 23.4663 18.3895L21.5689 19.0217ZM21.082 17.7417C21.2717 18.2071 21.4346 18.608 21.5665 19.0143L23.4688 18.3969C23.3104 17.909 23.1187 17.4399 22.934 16.9868L21.082 17.7417ZM13.0584 16.4065H16.2394V14.4065H13.0584V16.4065ZM11.9998 16.4046C12.3521 16.4056 12.7056 16.4065 13.0584 16.4065V14.4065C12.7087 14.4065 12.3578 14.4056 12.0051 14.4047L11.9998 16.4046ZM9.89377 16.4065C10.5911 16.4009 11.293 16.4028 11.9998 16.4046L12.0051 14.4047C11.3 14.4028 10.5875 14.4009 9.87789 14.4065L9.89377 16.4065ZM8.31687 15.0362C8.3219 15.2524 8.36924 15.4982 8.50636 15.7321C8.6478 15.9734 8.84618 16.136 9.04678 16.2374C9.39008 16.4108 9.75621 16.4065 9.88583 16.4065V14.4065C9.85936 14.4065 9.84051 14.4061 9.82646 14.4054C9.81237 14.4048 9.80757 14.4041 9.80955 14.4043C9.81139 14.4046 9.82518 14.4065 9.84736 14.4125C9.86967 14.4187 9.90531 14.4303 9.94847 14.4522C10.0434 14.5001 10.1533 14.5869 10.2317 14.7206C10.3058 14.847 10.3155 14.9535 10.3163 14.9897L8.31687 15.0362ZM9.8942 13.5692C9.70102 13.5692 9.31934 13.584 8.96659 13.7985C8.50923 14.0765 8.30584 14.5507 8.31686 15.0357L10.3163 14.9902C10.3171 15.023 10.3128 15.1187 10.2534 15.2369C10.1907 15.3619 10.0964 15.4522 10.0056 15.5074C9.92492 15.5564 9.86341 15.5683 9.85398 15.57C9.84322 15.572 9.85321 15.5692 9.8942 15.5692V13.5692ZM16.2478 13.5692H9.8942V15.5692H16.2478V13.5692ZM17.8337 15.0046C17.8337 14.7837 17.7906 14.5394 17.6643 14.3057C17.5351 14.0665 17.3495 13.8956 17.1536 13.7826C16.8041 13.5809 16.4306 13.5692 16.2478 13.5692V15.5692C16.2901 15.5692 16.3023 15.5719 16.2948 15.5705C16.2886 15.5695 16.2313 15.5595 16.1539 15.5148C16.0669 15.4646 15.9713 15.3795 15.9048 15.2565C15.8413 15.139 15.8337 15.0413 15.8337 15.0046H17.8337ZM16.2394 16.4065C16.3455 16.4065 16.7233 16.4179 17.0699 16.2559C17.2783 16.1585 17.4925 15.994 17.6437 15.7374C17.7896 15.4896 17.8337 15.229 17.8337 15.0046H15.8337C15.8337 14.9727 15.8401 14.8587 15.9204 14.7224C16.0059 14.5772 16.1265 14.4892 16.223 14.4441C16.3048 14.4058 16.3598 14.4024 16.3472 14.4038C16.3364 14.405 16.3099 14.4065 16.2394 14.4065V16.4065Z" fill="#E60000" mask="url(#path-1-inside-1_703_8004)"/>
</g>
</g>
<defs>
<filter id="filter0_b_703_8004" x="-11.9082" y="-11.8999" width="49.9668" height="43.2031" filterUnits="userSpaceOnUse" color-interpolation-filters="sRGB">
<feFlood flood-opacity="0" result="BackgroundImageFix"/>
<feGaussianBlur in="BackgroundImageFix" stdDeviation="6"/>
<feComposite in2="SourceAlpha" operator="in" result="effect1_backgroundBlur_703_8004"/>
<feBlend mode="normal" in="SourceGraphic" in2="effect1_backgroundBlur_703_8004" result="shape"/>
</filter>
<clipPath id="clip0_703_8004">
<rect width="25.95" height="19.2" fill="white" transform="translate(0.0996094 0.100098)"/>
</clipPath>
</defs>
</svg>
