<svg width="21" height="18" viewBox="0 0 21 18" fill="none" xmlns="http://www.w3.org/2000/svg">
<path d="M6.62578 17.125C14.1711 17.125 18.2992 10.8723 18.2992 5.45159C18.2992 5.27581 18.2953 5.09612 18.2875 4.92034C19.0905 4.33959 19.7836 3.62025 20.334 2.79612C19.5861 3.12887 18.792 3.34619 17.9789 3.44065C18.8351 2.92746 19.4761 2.12126 19.7832 1.17151C18.9778 1.64884 18.097 1.98555 17.1785 2.16721C16.5597 1.50967 15.7415 1.0743 14.8504 0.928414C13.9593 0.782526 13.045 0.934247 12.2488 1.36012C11.4526 1.78599 10.8188 2.46229 10.4455 3.28446C10.0722 4.10664 9.98018 5.02888 10.1836 5.90862C8.55273 5.82678 6.95726 5.40312 5.50064 4.66512C4.04401 3.92712 2.75873 2.89124 1.72812 1.62464C1.20432 2.52774 1.04403 3.59641 1.27984 4.61345C1.51566 5.63049 2.12987 6.51958 2.99766 7.10003C2.34617 7.07934 1.70896 6.90394 1.13867 6.58831V6.63909C1.13809 7.58683 1.46573 8.50553 2.06591 9.23901C2.66609 9.9725 3.50175 10.4755 4.43086 10.6625C3.82736 10.8276 3.19397 10.8517 2.57969 10.7328C2.84186 11.5479 3.35196 12.2608 4.03879 12.772C4.72562 13.2832 5.55492 13.5672 6.41094 13.5844C4.95767 14.726 3.16246 15.3451 1.31445 15.3422C0.986724 15.3417 0.659317 15.3216 0.333984 15.2821C2.21136 16.4865 4.39526 17.1262 6.62578 17.125Z" fill="white"/>
</svg>
